<svg xmlns="http://www.w3.org/2000/svg" xmlns:svg="http://www.w3.org/2000/svg" id="svg2" width="1530.709" height="722.835" version="1.0" viewBox="0 0 654.303 473.858"><metadata id="metadata184"/><defs id="defs182"><marker style="overflow:visible" id="DotL" orient="auto" refX="0" refY="0"><path style="fill-rule:evenodd;stroke:#000;stroke-width:1pt;marker-start:none;marker-end:none" id="path4059" d="m -2.5,-1 c 0,2.76 -2.24,5 -5,5 -2.76,0 -5,-2.24 -5,-5 0,-2.76 2.24,-5 5,-5 2.76,0 5,2.24 5,5 z" transform="matrix(0.8,0,0,0.8,5.92,0.8)"/></marker><marker style="overflow:visible" id="Arrow2Lstart" orient="auto" refX="0" refY="0"><path style="font-size:12px;fill-rule:evenodd;stroke-width:.625;stroke-linejoin:round" id="path4328" d="M 8.7185878,4.0337352 -2.2072895,0.01601326 8.7185884,-4.0017078 c -1.7454984,2.3720609 -1.7354408,5.6174519 -6e-7,8.035443 z" transform="matrix(1.1,0,0,1.1,1.1,0)"/></marker><marker style="overflow:visible" id="Arrow2Lend" orient="auto" refX="0" refY="0"><path style="font-size:12px;fill-rule:evenodd;stroke-width:.625;stroke-linejoin:round" id="path3605" d="M 8.7185878,4.0337352 -2.2072895,0.01601326 8.7185884,-4.0017078 c -1.7454984,2.3720609 -1.7354408,5.6174519 -6e-7,8.035443 z" transform="matrix(-1.1,0,0,-1.1,-1.1,0)"/></marker><marker style="overflow:visible" id="TriangleOutL" orient="auto" refX="0" refY="0"><path style="fill-rule:evenodd;stroke:#000;stroke-width:1pt;marker-start:none" id="path3727" d="m 5.77,0 -8.65,5 0,-10 8.65,5 z" transform="scale(0.8,0.8)"/></marker><marker style="overflow:visible" id="Arrow1Lend" orient="auto" refX="0" refY="0"><path style="fill-rule:evenodd;stroke:#000;stroke-width:1pt;marker-start:none" id="path3587" d="M 0,0 5,-5 -12.5,0 5,5 0,0 z" transform="matrix(-0.8,0,0,-0.8,-10,0)"/></marker><title id="title5">G</title><title id="title10">incoming_app</title><title id="title17">command_deploy</title><title id="title33">state_deployed</title><marker style="overflow:visible" id="DotLD" orient="auto" refX="0" refY="0"><path style="fill:#ff0d0d;fill-rule:evenodd;stroke:#ff0d0d;stroke-width:1pt;marker-start:none;marker-end:none" id="path4861" d="m -2.5,-1 c 0,2.76 -2.24,5 -5,5 -2.76,0 -5,-2.24 -5,-5 0,-2.76 2.24,-5 5,-5 2.76,0 5,2.24 5,5 z" transform="matrix(0.8,0,0,0.8,5.92,0.8)"/></marker><marker style="overflow:visible" id="DotLW" orient="auto" refX="0" refY="0"><path style="fill:#ff0d0d;fill-rule:evenodd;stroke:#ff0d0d;stroke-width:1pt;marker-start:none;marker-end:none" id="path4864" d="m -2.5,-1 c 0,2.76 -2.24,5 -5,5 -2.76,0 -5,-2.24 -5,-5 0,-2.76 2.24,-5 5,-5 2.76,0 5,2.24 5,5 z" transform="matrix(0.8,0,0,0.8,5.92,0.8)"/></marker><marker style="overflow:visible" id="DotLD-2" orient="auto" refX="0" refY="0"><path style="fill:#ff0d0d;fill-rule:evenodd;stroke:#ff0d0d;stroke-width:1pt;marker-start:none;marker-end:none" id="path4861-8" d="m -2.5,-1 c 0,2.76 -2.24,5 -5,5 -2.76,0 -5,-2.24 -5,-5 0,-2.76 2.24,-5 5,-5 2.76,0 5,2.24 5,5 z" transform="matrix(0.8,0,0,0.8,5.92,0.8)"/></marker><marker style="overflow:visible" id="DotLW-9" orient="auto" refX="0" refY="0"><path style="fill:#ff0d0d;fill-rule:evenodd;stroke:#ff0d0d;stroke-width:1pt;marker-start:none;marker-end:none" id="path4864-2" d="m -2.5,-1 c 0,2.76 -2.24,5 -5,5 -2.76,0 -5,-2.24 -5,-5 0,-2.76 2.24,-5 5,-5 2.76,0 5,2.24 5,5 z" transform="matrix(0.8,0,0,0.8,5.92,0.8)"/></marker><marker style="overflow:visible" id="DotLD-3" orient="auto" refX="0" refY="0"><path style="fill:#ff0d0d;fill-rule:evenodd;stroke:#ff0d0d;stroke-width:1pt;marker-start:none;marker-end:none" id="path4861-6" d="m -2.5,-1 c 0,2.76 -2.24,5 -5,5 -2.76,0 -5,-2.24 -5,-5 0,-2.76 2.24,-5 5,-5 2.76,0 5,2.24 5,5 z" transform="matrix(0.8,0,0,0.8,5.92,0.8)"/></marker><marker style="overflow:visible" id="DotLW-2" orient="auto" refX="0" refY="0"><path style="fill:#ff0d0d;fill-rule:evenodd;stroke:#ff0d0d;stroke-width:1pt;marker-start:none;marker-end:none" id="path4864-3" d="m -2.5,-1 c 0,2.76 -2.24,5 -5,5 -2.76,0 -5,-2.24 -5,-5 0,-2.76 2.24,-5 5,-5 2.76,0 5,2.24 5,5 z" transform="matrix(0.8,0,0,0.8,5.92,0.8)"/></marker><marker style="overflow:visible" id="DotLD-5" orient="auto" refX="0" refY="0"><path style="fill:#ff0d0d;fill-rule:evenodd;stroke:#ff0d0d;stroke-width:1pt;marker-start:none;marker-end:none" id="path4861-1" d="m -2.5,-1 c 0,2.76 -2.24,5 -5,5 -2.76,0 -5,-2.24 -5,-5 0,-2.76 2.24,-5 5,-5 2.76,0 5,2.24 5,5 z" transform="matrix(0.8,0,0,0.8,5.92,0.8)"/></marker><marker style="overflow:visible" id="DotLW-4" orient="auto" refX="0" refY="0"><path style="fill:#ff0d0d;fill-rule:evenodd;stroke:#ff0d0d;stroke-width:1pt;marker-start:none;marker-end:none" id="path4864-28" d="m -2.5,-1 c 0,2.76 -2.24,5 -5,5 -2.76,0 -5,-2.24 -5,-5 0,-2.76 2.24,-5 5,-5 2.76,0 5,2.24 5,5 z" transform="matrix(0.8,0,0,0.8,5.92,0.8)"/></marker></defs><g id="g5120" transform="translate(164.12806,-1.8650493)"><g id="g2936" transform="translate(-5.0817088,14.292179)"><polygon style="fill:#0ff;fill-opacity:1;stroke:#0aa;stroke-width:.80055952;stroke-opacity:1" id="polygon3447" points="228 -510 144 -510 144 -468 228 -468 228 -510" transform="matrix(1.2491264,0,0,1.2491264,114.40682,816.04947)"/><text style="font-size:17.98741913px;font-style:normal;font-variant:normal;font-weight:400;font-stretch:normal;text-align:center;line-height:125%;writing-mode:lr-tb;text-anchor:middle;font-family:Sans;-inkscape-font-specification:Sans" id="text3449" x="346.678" y="210.189"><tspan id="tspan3453" x="346.678" y="210.189">Deploying</tspan></text></g><polygon style="fill:#0ff;stroke:#0ff;stroke-width:.70490372" id="polygon3491" points="138 -390 230 -390 230 -432 230 -432 138 -432" transform="matrix(1.6111428,0,0,1.2491264,-123.14647,663.19292)"/><text style="font-size:17.98741913px;font-style:normal;font-variant:normal;font-weight:400;font-stretch:normal;text-align:center;line-height:125%;writing-mode:lr-tb;text-anchor:middle;font-family:Sans;-inkscape-font-specification:Sans" id="text3493" x="173.339" y="154.764"><tspan id="tspan3505" x="173.339" y="154.764">Undeployed</tspan></text><g id="g2944" transform="translate(-5.0817088,14.292179)"><polygon style="fill:#0ff;fill-opacity:1;stroke:#0aa;stroke-width:.80055952;stroke-opacity:1" id="polygon3551" points="228 -468 228 -510 228 -510 144 -510 144 -468" transform="matrix(1.4834695,0,0,1.2470109,-274.63019,815.015)"/><text style="font-size:17.98741913px;font-style:normal;font-variant:normal;font-weight:400;font-stretch:normal;text-align:center;line-height:125%;writing-mode:lr-tb;text-anchor:middle;font-family:Sans;-inkscape-font-specification:Sans" id="text3553" x="1.33" y="210.189"><tspan id="tspan3561" x="1.33" y="210.189">Undeploying</tspan></text></g><g id="g3483" transform="matrix(1.2491264,0,0,1.2491264,-107.96628,21.876179)"><ellipse style="fill:#c1c1c1;fill-opacity:1;stroke:none" id="ellipse3485" cx="222" cy="-564" d="m 318.7846,-564 c 0,9.94113 -43.33194,18 -96.7846,18 -53.45266,0 -96.7846,-8.05887 -96.7846,-18 0,-9.94113 43.33194,-18 96.7846,-18 53.45266,0 96.7846,8.05887 96.7846,18 z" rx="96.785" ry="18" transform="translate(4,586)"/><text style="font-size:14.39999962px;font-style:normal;font-variant:normal;font-weight:400;font-stretch:normal;text-align:center;line-height:125%;writing-mode:lr-tb;text-anchor:middle;font-family:Sans;-inkscape-font-specification:Sans" id="text3487" x="226" y="26.1">Incoming WebApp</text></g><path style="fill:none;stroke:#000;stroke-width:.99881887;stroke-linecap:butt;stroke-linejoin:miter;stroke-miterlimit:4;stroke-opacity:1;stroke-dasharray:none;marker-end:url(#Arrow2Lend)" id="path2594" d="m 175.319,71.816165 0,50.845995"/><path id="path3923" d="m 247.41636,168.56516 41.78294,36.021" style="fill:none;stroke:#000;stroke-width:.99881887;stroke-linecap:butt;stroke-linejoin:miter;stroke-miterlimit:4;stroke-opacity:1;stroke-dasharray:none;marker-end:url(#Arrow2Lend)"/><path style="fill:none;stroke:#000;stroke-width:.99881887;stroke-linecap:butt;stroke-linejoin:miter;stroke-miterlimit:4;stroke-opacity:1;stroke-dasharray:none;marker-end:url(#Arrow2Lend)" id="path3925" d="m 289.1993,227.38916 -57.81112,52.05"/><g id="g2928" transform="translate(-5.0817088,14.292179)"><polygon style="fill:#0ff;stroke:#0ff;stroke-width:.80055952" id="polygon3471" points="230 -432 138 -432 138 -390 230 -390 230 -432" transform="matrix(1.2491264,0,0,1.2491264,-50.829179,787.70992)"/><text style="font-size:17.98741913px;font-style:normal;font-variant:normal;font-weight:400;font-stretch:normal;text-align:center;line-height:125%;writing-mode:lr-tb;text-anchor:middle;font-family:Sans;-inkscape-font-specification:Sans" id="text3473" x="178.944" y="279.281"><tspan id="tspan3477" x="178.944" y="279.281">Deployed</tspan></text></g><path id="path3927" d="m 231.38818,298.50616 57.18658,46.465" style="fill:none;stroke:#000;stroke-width:.99881887;stroke-linecap:butt;stroke-linejoin:miter;stroke-miterlimit:4;stroke-opacity:1;stroke-dasharray:none;marker-end:url(#Arrow2Lend)"/><path id="path3941" d="m 57.642519,201.05516 41.548722,-33.236" style="fill:none;stroke:#000;stroke-width:.99881887;stroke-linecap:butt;stroke-linejoin:miter;stroke-miterlimit:4;stroke-opacity:1;stroke-dasharray:none;marker-end:url(#Arrow2Lend)"/><path id="path3943" d="m 116.46856,278.12916 -58.826041,-50.892" style="fill:none;stroke:#000;stroke-width:.99881887;stroke-linecap:butt;stroke-linejoin:miter;stroke-miterlimit:4;stroke-opacity:1;stroke-dasharray:none;marker-end:url(#Arrow2Lend)"/><text style="font-size:20.46376419px;font-style:italic;font-variant:normal;font-weight:700;font-stretch:normal;text-align:center;line-height:100%;writing-mode:lr-tb;text-anchor:middle;font-family:Sans;-inkscape-font-specification:Sans Bold Italic" id="text2456" x="-254.596" y="43.416"><tspan id="tspan2460" x="-254.596" y="43.416" style="font-size:20.46376419px;font-style:italic;font-variant:normal;font-weight:700;font-stretch:normal;text-align:center;line-height:100%;writing-mode:lr-tb;text-anchor:middle;font-family:Sans;-inkscape-font-specification:Sans Bold Italic">Default</tspan> <tspan id="tspan5116" x="-254.596" y="63.88" style="font-size:20.46376419px;font-style:italic;font-variant:normal;font-weight:700;font-stretch:normal;text-align:center;line-height:100%;writing-mode:lr-tb;text-anchor:middle;font-family:Sans;-inkscape-font-specification:Sans Bold Italic">App</tspan> <tspan id="tspan2464" x="-254.596" y="84.343" style="font-size:20.46376419px;font-style:italic;font-variant:normal;font-weight:700;font-stretch:normal;text-align:center;line-height:100%;writing-mode:lr-tb;text-anchor:middle;font-family:Sans;-inkscape-font-specification:Sans Bold Italic">LifeCycle</tspan> <tspan id="tspan5118" x="-254.596" y="104.807" style="font-size:20.46376419px;font-style:italic;font-variant:normal;font-weight:700;font-stretch:normal;text-align:center;line-height:100%;writing-mode:lr-tb;text-anchor:middle;font-family:Sans;-inkscape-font-specification:Sans Bold Italic">Bindings</tspan></text><g id="g2904" transform="translate(-5.0817088,-121.77383)"><polygon style="fill:#0ff;fill-opacity:1;stroke:#0aa;stroke-width:.80055952;stroke-opacity:1" id="polygon2474" points="144 -468 228 -468 228 -510 228 -510 144 -510" transform="matrix(1.2491264,0,0,1.2491264,114.40682,1087.7193)"/><text style="font-size:17.98741913px;font-style:normal;font-variant:normal;font-weight:400;font-stretch:normal;text-align:center;line-height:125%;writing-mode:lr-tb;text-anchor:middle;font-family:Sans;-inkscape-font-specification:Sans" id="text2476" x="346.968" y="481.859"><tspan id="tspan2480" x="346.968" y="481.859">Starting</tspan></text></g><g id="g2920" transform="translate(-5.0817088,14.061179)"><polygon style="fill:#0ff;fill-opacity:1;stroke:#0aa;stroke-width:.80055952;stroke-opacity:1" id="polygon2484" points="144 -468 228 -468 228 -510 228 -510 144 -510" transform="matrix(1.2491264,0,0,1.2491264,-222.07659,951.8844)"/><text style="font-size:17.98741913px;font-style:normal;font-variant:normal;font-weight:400;font-stretch:normal;text-align:center;line-height:125%;writing-mode:lr-tb;text-anchor:middle;font-family:Sans;-inkscape-font-specification:Sans" id="text2486" x="10.485" y="346.024"><tspan id="tspan2490" x="10.485" y="346.024">Stopping</tspan></text></g><path style="fill:none;stroke:#000;stroke-width:.99881887;stroke-linecap:butt;stroke-linejoin:miter;stroke-miterlimit:4;stroke-opacity:1;stroke-dasharray:none;marker-end:url(#Arrow2Lend)" id="path2494" d="m 57.642519,340.66516 58.826041,-39.946"/><g id="g2912" transform="translate(-5.0817088,-122.00483)"><polygon id="polygon2553" points="138 -432 138 -390 230 -390 230 -432 230 -432" transform="matrix(1.2491264,0,0,1.2491264,-51.844096,1059.3798)" style="fill:#0ff;stroke:#0ff;stroke-width:.80055952"/><text id="text2555" x="178.219" y="552.695" style="font-size:17.98741913px;font-style:normal;font-variant:normal;font-weight:400;font-stretch:normal;text-align:center;line-height:125%;writing-mode:lr-tb;text-anchor:middle;font-family:Sans;-inkscape-font-specification:Sans"><tspan id="tspan2559" x="178.219" y="552.695">Started</tspan></text></g><path style="fill:none;stroke:#000;stroke-width:.99881887;stroke-linecap:butt;stroke-linejoin:miter;stroke-miterlimit:4;stroke-opacity:1;stroke-dasharray:none;marker-end:url(#Arrow2Lend)" id="path2561" d="m 115.45364,416.82016 -57.104919,-50.065"/><path style="fill:none;stroke:#000;stroke-width:.99881887;stroke-linecap:butt;stroke-linejoin:miter;stroke-miterlimit:4;stroke-opacity:1;stroke-dasharray:none;marker-end:url(#Arrow2Lend)" id="path2563" d="m 289.1993,369.66316 -58.82603,53.672"/><g id="g3977" transform="translate(7.7330887,-301.24273)"><rect id="rect2870-4-7-5" width="207.178" height="78.435" x="-319.581" y="479.538" rx="13.523" ry="14.335" style="fill:#9bffa7;fill-opacity:1;stroke:#05aa00;stroke-width:1.31111109;stroke-linecap:round;stroke-linejoin:miter;stroke-miterlimit:4;stroke-opacity:1;stroke-dasharray:none;stroke-dashoffset:0"/><text id="text3493-7-9-4-2" x="-216.576" y="507.49" style="font-size:17.98741913px;font-style:normal;font-variant:normal;font-weight:400;font-stretch:normal;text-align:center;line-height:125%;writing-mode:lr-tb;text-anchor:middle;font-family:Sans;-inkscape-font-specification:Sans"><tspan id="tspan3505-5-2-2-4" x="-216.576" y="507.49">StandardUndeployer</tspan></text><text id="text3823" x="-306.416" y="521.424" xml:space="preserve" style="font-size:10.48471642px;font-style:italic;font-variant:normal;font-weight:400;font-stretch:normal;text-align:start;line-height:125%;writing-mode:lr-tb;text-anchor:start;fill:#000;fill-opacity:1;stroke:none;font-family:Sans;-inkscape-font-specification:Sans Italic"><tspan id="tspan3825" x="-306.416" y="521.424">Removes Contexts</tspan><tspan id="tspan3864" x="-306.416" y="534.53">Removes Handlers</tspan><tspan id="tspan3866" x="-306.416" y="547.636">Frees Up Resources</tspan></text></g><g id="g3939" transform="translate(19.889905,-73.43965)"><rect id="rect2870-4-7" width="194.195" height="57.339" x="-317.958" y="401.103" rx="13.523" ry="12.712" style="fill:#9bffa7;fill-opacity:1;stroke:#05aa00;stroke-width:1.31111109;stroke-linecap:round;stroke-linejoin:miter;stroke-miterlimit:4;stroke-opacity:1;stroke-dasharray:none;stroke-dashoffset:0"/><text id="text3493-7-9-4" x="-221.445" y="429.055" style="font-size:17.98741913px;font-style:normal;font-variant:normal;font-weight:400;font-stretch:normal;text-align:center;line-height:125%;writing-mode:lr-tb;text-anchor:middle;font-family:Sans;-inkscape-font-specification:Sans"><tspan id="tspan3505-5-2-2" x="-221.445" y="429.055">StandardStopper</tspan></text><text id="text3823-0" x="-298.817" y="445.061" xml:space="preserve" style="font-size:10.48471642px;font-style:italic;font-variant:normal;font-weight:400;font-stretch:normal;text-align:start;line-height:125%;writing-mode:lr-tb;text-anchor:start;fill:#000;fill-opacity:1;stroke:none;font-family:Sans;-inkscape-font-specification:Sans Italic"><tspan id="tspan3825-5" x="-298.817" y="445.061">Disables Incoming Requests</tspan></text></g><g id="g3932" transform="translate(766.52635,50.489759)"><rect id="rect2870-4" width="194.195" height="57.38" x="-322.827" y="276.147" rx="13.523" ry="14.876" style="fill:#9bffa7;fill-opacity:1;stroke:#05aa00;stroke-width:1.31111109;stroke-linecap:round;stroke-linejoin:miter;stroke-miterlimit:4;stroke-opacity:1;stroke-dasharray:none;stroke-dashoffset:0"/><text id="text3493-7-9" x="-226.313" y="304.099" style="font-size:17.98741913px;font-style:normal;font-variant:normal;font-weight:400;font-stretch:normal;text-align:center;line-height:125%;writing-mode:lr-tb;text-anchor:middle;font-family:Sans;-inkscape-font-specification:Sans"><tspan id="tspan3505-5-2" x="-226.313" y="304.099">StandardStarter</tspan></text><text id="text3823-4" x="-299.95" y="316.96" xml:space="preserve" style="font-size:10.48471642px;font-style:italic;font-variant:normal;font-weight:400;font-stretch:normal;text-align:start;line-height:125%;writing-mode:lr-tb;text-anchor:start;fill:#000;fill-opacity:1;stroke:none;font-family:Sans;-inkscape-font-specification:Sans Italic"><tspan id="tspan3866-6" x="-299.95" y="316.96">Allows Incoming Requests</tspan></text></g><g id="g3923" transform="translate(725.21654,76.499635)"><rect id="rect2870" width="194.195" height="82.222" x="-284.691" y="102.237" rx="14.064" ry="13.794" style="fill:#9bffa7;fill-opacity:1;stroke:#05aa00;stroke-width:1.31111109;stroke-linecap:round;stroke-linejoin:miter;stroke-miterlimit:4;stroke-opacity:1;stroke-dasharray:none;stroke-dashoffset:0"/><text id="text3493-7" x="-188.177" y="130.189" style="font-size:17.98741913px;font-style:normal;font-variant:normal;font-weight:400;font-stretch:normal;text-align:center;line-height:125%;writing-mode:lr-tb;text-anchor:middle;font-family:Sans;-inkscape-font-specification:Sans"><tspan id="tspan3505-5" x="-188.177" y="130.189">StandardDeployer</tspan></text><text id="text3823-7" x="-268.575" y="143.861" xml:space="preserve" style="font-size:10.48471642px;font-style:italic;font-variant:normal;font-weight:400;font-stretch:normal;text-align:start;line-height:125%;writing-mode:lr-tb;text-anchor:start;fill:#000;fill-opacity:1;stroke:none;font-family:Sans;-inkscape-font-specification:Sans Italic"><tspan id="tspan3825-56" x="-268.575" y="143.861">Allocates Resources</tspan><tspan id="tspan3914" x="-268.575" y="156.967">Creates Contexts</tspan><tspan id="tspan3866-3" x="-268.575" y="170.072">Creates / Adds Handlers</tspan></text></g><path style="fill:#ff1f1f;fill-opacity:1;stroke:#ff0d0d;stroke-width:1.16141737;stroke-linecap:butt;stroke-linejoin:miter;stroke-miterlimit:4;stroke-opacity:1;stroke-dasharray:none;marker-start:url(#DotLD);marker-mid:none;marker-end:url(#DotLW)" id="path3988" d="m -104.67037,221.33486 38.578079,0.44811"/><path style="fill:#ff1f1f;fill-opacity:1;stroke:#ff0d0d;stroke-width:1.16141737;stroke-linecap:butt;stroke-linejoin:miter;stroke-miterlimit:4;stroke-opacity:1;stroke-dasharray:none;marker-start:url(#DotLD);marker-mid:none;marker-end:url(#DotLW)" id="path3988-8" d="m -103.87317,356.47299 56.589073,-0.54095"/><path style="fill:#ff1f1f;fill-opacity:1;stroke:#ff0d0d;stroke-width:1.16141737;stroke-linecap:butt;stroke-linejoin:miter;stroke-miterlimit:4;stroke-opacity:1;stroke-dasharray:none;marker-start:url(#DotLD);marker-mid:none;marker-end:url(#DotLW)" id="path3988-9" d="m 394.12593,220.69852 46.39966,-0.54095"/><path style="fill:#ff1f1f;fill-opacity:1;stroke:#ff0d0d;stroke-width:1.16141737;stroke-linecap:butt;stroke-linejoin:miter;stroke-miterlimit:4;stroke-opacity:1;stroke-dasharray:none;marker-start:url(#DotLD);marker-mid:none;marker-end:url(#DotLW)" id="path3988-2" d="m 394.12593,356.47298 49.57364,0.54092"/></g></svg>